<svg width="66" height="58" viewBox="0 0 66 58" fill="none" xmlns="http://www.w3.org/2000/svg">
<path d="M38.6404 0.491576C40.1662 -0.633612 42.4073 0.285568 42.5693 2.10521C44.4333 23.0464 44.5092 36.1253 42.6006 55.9172C42.4261 57.7263 40.1966 58.6274 38.6786 57.5081L21.6191 44.9281C21.2753 44.6745 20.8593 44.5378 20.4321 44.5378H4.88888C2.18883 44.5378 0 42.4747 0 39.9297V18.0417C0 15.4967 2.18883 13.4337 4.88889 13.4337H20.4321C20.8593 13.4337 21.2753 13.2969 21.6191 13.0433L38.6404 0.491576Z" fill="black"/>
<path d="M48.577 16.5852C47.7998 15.1669 48.8604 13.4337 50.5539 13.4337C51.3524 13.4337 52.0919 13.8423 52.4717 14.5043C59.5307 26.8058 59.492 34.0774 52.46 46.0991C52.0868 46.7371 51.3698 47.1298 50.5968 47.1298C48.9149 47.1298 47.8819 45.3846 48.688 43.9932C54.3941 34.1443 54.426 27.2591 48.577 16.5852Z" fill="black"/>
<path d="M56.2913 3.06565C54.4649 3.06565 53.3011 4.9117 54.1199 6.45051C63.5866 24.2419 63.2734 35.1308 54.1943 51.529C53.3512 53.0518 54.5008 54.9058 56.3232 54.9058C57.2152 54.9058 58.0381 54.4298 58.4391 53.6788C68.5442 34.7529 68.4951 23.5233 58.443 4.32452C58.0401 3.55502 57.2017 3.06565 56.2913 3.06565Z" fill="black"/>
</svg>
